{
  "accessors": [
    {
      "bufferView": 2,
      "componentType": 5126,
      "count": 12800,
      "max": [
        1.3778599500656128,
        1.3778599500656128,
        0.4959299862384796
      ],
      "min": [
        -1.3778599500656128,
        -1.3778599500656128,
        -0.37060999870300293
      ],
      "type": "VEC3"
    },
    {
      "bufferView": 2,
      "byteOffset": 153600,
      "componentType": 5126,
      "count": 12800,
      "max": [
        0.9917601346969604,
        0.9917601346969604,
        0.9997010827064514
      ],
      "min": [
        -0.9917601346969604,
        -0.9917601346969604,
        -0.9999960660934448
      ],
      "type": "VEC3"
    },
    {
      "bufferView": 1,
      "componentType": 5126,
      "count": 12800,
      "max": [
        0.9993000030517578,
        0.9993000030517578
      ],
      "min": [
        0.000699999975040555,
        0.000699999975040555
      ],
      "type": "VEC2"
    },
    {
      "bufferView": 0,
      "componentType": 5125,
      "count": 19200,
      "type": "SCALAR"
    },
    {
      "bufferView": 2,
      "byteOffset": 307200,
      "componentType": 5126,
      "count": 51596,
      "max": [
        0.99031001329422,
        0.9858599901199341,
        -0.37060999870300293
      ],
      "min": [
        -0.9914699792861938,
        -0.995930016040802,
        -4.654359817504883
      ],
      "type": "VEC3"
    },
    {
      "bufferView": 2,
      "byteOffset": 926352,
      "componentType": 5126,
      "count": 51596,
      "max": [
        0.9996971487998962,
        0.9996971487998962,
        0.9992222785949707
      ],
      "min": [
        -0.9996971487998962,
        -0.9996971487998962,
        -0.9993119239807129
      ],
      "type": "VEC3"
    },
    {
      "bufferView": 1,
      "byteOffset": 102400,
      "componentType": 5126,
      "count": 51596,
      "max": [
        1.0,
        1.0
      ],
      "min": [
        0.0,
        0.0
      ],
      "type": "VEC2"
    },
    {
      "bufferView": 0,
      "byteOffset": 76800,
      "componentType": 5125,
      "count": 82176,
      "type": "SCALAR"
    }
  ],
  "asset": {
    "extras": {
      "author": "MIKErowaveoven (https://sketchfab.com/mikerowaveoven)",
      "license": "CC-BY-4.0 (http://creativecommons.org/licenses/by/4.0/)",
      "source": "https://sketchfab.com/3d-models/bar-chair-92d6f92a13754c869ad791fa66813d01",
      "title": "Bar chair"
    },
    "generator": "Sketchfab-12.66.0",
    "version": "2.0"
  },
  "bufferViews": [
    {
      "buffer": 0,
      "byteLength": 405504,
      "name": "floatBufferViews",
      "target": 34963
    },
    {
      "buffer": 0,
      "byteLength": 515168,
      "byteOffset": 405504,
      "byteStride": 8,
      "name": "floatBufferViews",
      "target": 34962
    },
    {
      "buffer": 0,
      "byteLength": 1545504,
      "byteOffset": 920672,
      "byteStride": 12,
      "name": "floatBufferViews",
      "target": 34962
    }
  ],
  "buffers": [
    {
      "byteLength": 2466176,
      "uri": "scene.bin"
    }
  ],
  "images": [
    {
      "uri": "textures/Material.001_baseColor.jpeg"
    },
    {
      "uri": "textures/Material.002_baseColor.jpeg"
    }
  ],
  "materials": [
    {
      "doubleSided": true,
      "name": "Material.001",
      "pbrMetallicRoughness": {
        "baseColorTexture": {
          "index": 0
        },
        "metallicFactor": 0.0,
        "roughnessFactor": 0.3830998921908991
      }
    },
    {
      "doubleSided": true,
      "name": "Material.002",
      "pbrMetallicRoughness": {
        "baseColorTexture": {
          "index": 1
        },
        "metallicFactor": 0.8957056171216661,
        "roughnessFactor": 0.11429445106866767
      }
    }
  ],
  "meshes": [
    {
      "name": "Cylinder_0",
      "primitives": [
        {
          "attributes": {
            "NORMAL": 1,
            "POSITION": 0,
            "TEXCOORD_0": 2
          },
          "indices": 3,
          "material": 0,
          "mode": 4
        }
      ]
    },
    {
      "name": "Cylinder_1",
      "primitives": [
        {
          "attributes": {
            "NORMAL": 5,
            "POSITION": 4,
            "TEXCOORD_0": 6
          },
          "indices": 7,
          "material": 1,
          "mode": 4
        }
      ]
    }
  ],
  "nodes": [
    {
      "children": [
        1
      ],
      "matrix": [
        1.0,
        0.0,
        0.0,
        0.0,
        0.0,
        2.220446049250313e-16,
        -1.0,
        0.0,
        0.0,
        1.0,
        2.220446049250313e-16,
        0.0,
        0.0,
        0.0,
        0.0,
        1.0
      ],
      "name": "Sketchfab_model"
    },
    {
      "children": [
        2
      ],
      "name": "Root"
    },
    {
      "children": [
        3,
        4
      ],
      "matrix": [
        0.50329,
        0.0,
        0.0,
        0.0,
        0.0,
        0.50329,
        0.0,
        0.0,
        0.0,
        0.0,
        0.50329,
        0.0,
        0.0,
        0.0,
        2.4355599999999997,
        1.0
      ],
      "name": "Cylinder"
    },
    {
      "mesh": 0,
      "name": "Cylinder_0"
    },
    {
      "mesh": 1,
      "name": "Cylinder_1"
    }
  ],
  "samplers": [
    {
      "magFilter": 9729,
      "minFilter": 9987,
      "wrapS": 10497,
      "wrapT": 10497
    }
  ],
  "scene": 0,
  "scenes": [
    {
      "name": "Sketchfab_Scene",
      "nodes": [
        0
      ]
    }
  ],
  "textures": [
    {
      "sampler": 0,
      "source": 0
    },
    {
      "sampler": 0,
      "source": 1
    }
  ]
}
