{
  "accessors": [
    {
      "bufferView": 2,
      "componentType": 5126,
      "count": 14325,
      "max": [
        387.205078125,
        246.94631958007813,
        202.06875610351563
      ],
      "min": [
        -298.9144592285156,
        -3.2055130004882813,
        -109.70352172851563
      ],
      "type": "VEC3"
    },
    {
      "bufferView": 2,
      "byteOffset": 171900,
      "componentType": 5126,
      "count": 14325,
      "max": [
        1.0,
        1.0,
        1.0
      ],
      "min": [
        -1.0,
        -0.9997880458831787,
        -1.0
      ],
      "type": "VEC3"
    },
    {
      "bufferView": 1,
      "componentType": 5126,
      "count": 14325,
      "max": [
        0.9916989803314209,
        0.9985349774360657
      ],
      "min": [
        0.0012209999840706587,
        0.13085901737213135
      ],
      "type": "VEC2"
    },
    {
      "bufferView": 0,
      "componentType": 5125,
      "count": 71913,
      "type": "SCALAR"
    },
    {
      "bufferView": 2,
      "byteOffset": 343800,
      "componentType": 5126,
      "count": 249,
      "max": [
        48.08916091918945,
        198.32688903808594,
        194.05084228515625
      ],
      "min": [
        -48.20256042480469,
        139.2912139892578,
        149.0065460205078
      ],
      "type": "VEC3"
    },
    {
      "bufferView": 2,
      "byteOffset": 346788,
      "componentType": 5126,
      "count": 249,
      "max": [
        0.9734330773353577,
        0.986892580986023,
        0.9999269247055054
      ],
      "min": [
        -0.9746818542480469,
        -0.9903510808944702,
        -0.990567684173584
      ],
      "type": "VEC3"
    },
    {
      "bufferView": 1,
      "byteOffset": 114600,
      "componentType": 5126,
      "count": 249,
      "max": [
        0.9848629832267761,
        0.9804689884185791
      ],
      "min": [
        0.004494000226259232,
        0.015411019325256348
      ],
      "type": "VEC2"
    },
    {
      "bufferView": 0,
      "byteOffset": 287652,
      "componentType": 5125,
      "count": 1356,
      "type": "SCALAR"
    },
    {
      "bufferView": 2,
      "byteOffset": 349776,
      "componentType": 5126,
      "count": 402,
      "max": [
        32.585655212402344,
        217.44180297851563,
        203.65780639648438
      ],
      "min": [
        -32.585689544677734,
        191.74822998046875,
        197.31527709960938
      ],
      "type": "VEC3"
    },
    {
      "bufferView": 2,
      "byteOffset": 354600,
      "componentType": 5126,
      "count": 402,
      "max": [
        0.9522514343261719,
        0.9522446393966675,
        1.0
      ],
      "min": [
        -0.9522502422332764,
        -0.9522413611412048,
        0.30520591139793396
      ],
      "type": "VEC3"
    },
    {
      "bufferView": 1,
      "byteOffset": 116592,
      "componentType": 5126,
      "count": 402,
      "max": [
        0.9995120167732239,
        0.9995120167732239
      ],
      "min": [
        0.0001539999939268455,
        0.00029599666595458984
      ],
      "type": "VEC2"
    },
    {
      "bufferView": 0,
      "byteOffset": 293076,
      "componentType": 5125,
      "count": 2160,
      "type": "SCALAR"
    },
    {
      "bufferView": 2,
      "byteOffset": 359424,
      "componentType": 5126,
      "count": 21394,
      "max": [
        387.460693359375,
        254.19204711914063,
        215.35202026367188
      ],
      "min": [
        -387.460693359375,
        -17.251789093017578,
        -80.1309814453125
      ],
      "type": "VEC3"
    },
    {
      "bufferView": 2,
      "byteOffset": 616152,
      "componentType": 5126,
      "count": 21394,
      "max": [
        1.0,
        1.0,
        1.0
      ],
      "min": [
        -1.0,
        -1.0,
        -1.0
      ],
      "type": "VEC3"
    },
    {
      "bufferView": 1,
      "byteOffset": 119808,
      "componentType": 5126,
      "count": 21394,
      "max": [
        0.9985349774360657,
        0.9985349774360657
      ],
      "min": [
        0.0012209999840706587,
        0.0005139708518981934
      ],
      "type": "VEC2"
    },
    {
      "bufferView": 0,
      "byteOffset": 301716,
      "componentType": 5125,
      "count": 89367,
      "type": "SCALAR"
    }
  ],
  "asset": {
    "extras": {
      "author": "Some Random Guy From Internet (https://sketchfab.com/165738)",
      "license": "CC-BY-4.0 (http://creativecommons.org/licenses/by/4.0/)",
      "source": "https://sketchfab.com/3d-models/dj-music-man-0b2c94f8086d4557be981fcf23041276",
      "title": "DJ Music Man"
    },
    "generator": "Sketchfab-12.97.0",
    "version": "2.0"
  },
  "bufferViews": [
    {
      "buffer": 0,
      "byteLength": 659184,
      "name": "floatBufferViews",
      "target": 34963
    },
    {
      "buffer": 0,
      "byteLength": 290960,
      "byteOffset": 659184,
      "byteStride": 8,
      "name": "floatBufferViews",
      "target": 34962
    },
    {
      "buffer": 0,
      "byteLength": 872880,
      "byteOffset": 950144,
      "byteStride": 12,
      "name": "floatBufferViews",
      "target": 34962
    }
  ],
  "buffers": [
    {
      "byteLength": 1823024,
      "uri": "scene.bin"
    }
  ],
  "images": [
    {
      "uri": "textures/DJ_MusicMan_Main_baseColor.jpeg"
    },
    {
      "uri": "textures/DJ_MusicMan_Main_metallicRoughness.png"
    },
    {
      "uri": "textures/x_CommonPlastiglass06_baseColor.jpeg"
    },
    {
      "uri": "textures/x_CommonPlastiglass06_metallicRoughness.png"
    },
    {
      "uri": "textures/DJ_MusicMan_Eye_metallicRoughness.png"
    }
  ],
  "materials": [
    {
      "doubleSided": true,
      "name": "DJ_MusicMan_Main",
      "pbrMetallicRoughness": {
        "baseColorTexture": {
          "index": 0
        },
        "metallicRoughnessTexture": {
          "index": 1
        },
        "roughnessFactor": 0.0
      }
    },
    {
      "doubleSided": true,
      "name": "x_CommonPlastiglass06",
      "pbrMetallicRoughness": {
        "baseColorTexture": {
          "index": 2
        },
        "metallicRoughnessTexture": {
          "index": 3
        }
      }
    },
    {
      "doubleSided": true,
      "name": "DJ_MusicMan_Eye",
      "pbrMetallicRoughness": {
        "baseColorFactor": [
          0.0,
          0.0,
          0.0,
          1.0
        ],
        "metallicRoughnessTexture": {
          "index": 4
        },
        "roughnessFactor": 0.0
      }
    }
  ],
  "meshes": [
    {
      "name": "Object_0",
      "primitives": [
        {
          "attributes": {
            "NORMAL": 1,
            "POSITION": 0,
            "TEXCOORD_0": 2
          },
          "indices": 3,
          "material": 0,
          "mode": 4
        }
      ]
    },
    {
      "name": "Object_1",
      "primitives": [
        {
          "attributes": {
            "NORMAL": 5,
            "POSITION": 4,
            "TEXCOORD_0": 6
          },
          "indices": 7,
          "material": 1,
          "mode": 4
        }
      ]
    },
    {
      "name": "Object_2",
      "primitives": [
        {
          "attributes": {
            "NORMAL": 9,
            "POSITION": 8,
            "TEXCOORD_0": 10
          },
          "indices": 11,
          "material": 2,
          "mode": 4
        }
      ]
    },
    {
      "name": "Object_3",
      "primitives": [
        {
          "attributes": {
            "NORMAL": 13,
            "POSITION": 12,
            "TEXCOORD_0": 14
          },
          "indices": 15,
          "material": 0,
          "mode": 4
        }
      ]
    }
  ],
  "nodes": [
    {
      "children": [
        1
      ],
      "matrix": [
        1.0,
        0.0,
        0.0,
        0.0,
        0.0,
        2.220446049250313e-16,
        -1.0,
        0.0,
        0.0,
        1.0,
        2.220446049250313e-16,
        0.0,
        0.0,
        0.0,
        0.0,
        1.0
      ],
      "name": "Sketchfab_model"
    },
    {
      "children": [
        2,
        3,
        4,
        5
      ],
      "matrix": [
        0.009999999776482582,
        0.0,
        0.0,
        0.0,
        0.0,
        2.2204459996194763e-18,
        0.009999999776482582,
        0.0,
        0.0,
        -0.009999999776482582,
        2.2204459996194763e-18,
        0.0,
        0.0,
        0.0,
        0.0,
        1.0
      ],
      "name": "USDRoot"
    },
    {
      "mesh": 0,
      "name": "Object_0"
    },
    {
      "mesh": 1,
      "name": "Object_1"
    },
    {
      "mesh": 2,
      "name": "Object_2"
    },
    {
      "mesh": 3,
      "name": "Object_3"
    }
  ],
  "samplers": [
    {
      "magFilter": 9729,
      "minFilter": 9987,
      "wrapS": 10497,
      "wrapT": 10497
    }
  ],
  "scene": 0,
  "scenes": [
    {
      "name": "Sketchfab_Scene",
      "nodes": [
        0
      ]
    }
  ],
  "textures": [
    {
      "sampler": 0,
      "source": 0
    },
    {
      "sampler": 0,
      "source": 1
    },
    {
      "sampler": 0,
      "source": 2
    },
    {
      "sampler": 0,
      "source": 3
    },
    {
      "sampler": 0,
      "source": 4
    }
  ]
}
